# xmcd
#
# Track frame offsets:
#	150
#	20396
#	40403
#	65325
#	89095
#	108218
#	137326
#	162235
#	176599
#	193739
#	210037
#	237295
#
# Disc length: 3431 seconds
# Revision: 1
# Processed by: cddbd v1.5.2PL0 Copyright (c) Steve Scherf et al.
# Submitted via: dBpowerAMP V12.0
#
DISCID=980d650c
DTITLE=Val Starr and the Blues Rocket - I Always Turn The Blues On
DYEAR=2017
DGENRE=Blues
TTITLE0=High Time to Go
TTITLE1=I Always Turn the Blues On
TTITLE2=What Happens After Midnight (Nothin' Good)
TTITLE3=Whether Blues
TTITLE4=You Better Stop
TTITLE5=Please Don't Go Away Mad
TTITLE6=Bad Luck and the Blues
TTITLE7=Out with the Old
TTITLE8=The Baby Mama Song
TTITLE9=Blind Eye
TTITLE10=Bye Bye
TTITLE11=It's Always Somethin'
EXTD=
EXTT0=
EXTT1=
EXTT2=
EXTT3=
EXTT4=
EXTT5=
EXTT6=
EXTT7=
EXTT8=
EXTT9=
EXTT10=
EXTT11=
PLAYORDER=
